<svg width="84" height="43" viewBox="0 0 84 43" fill="none" xmlns="http://www.w3.org/2000/svg">
<path d="M73.7761 14.749L67.5112 2.25753C66.8171 0.873648 65.4015 -7.62939e-06 63.8534 -7.62939e-06H34.7764C33.4838 -7.62939e-06 32.2672 0.61067 31.495 1.64718L21.7331 14.749L16.1031 22.0098H78.1114L73.7761 14.749Z" fill="#00C8D4"/>
<path d="M51.666 1.64718C52.4382 0.61067 53.6548 -7.62939e-06 54.9474 -7.62939e-06H34.7764C33.4838 -7.62939e-06 32.2672 0.61067 31.495 1.64718L21.7331 14.749L16.1031 22.0098H36.2741L41.9041 14.749L51.666 1.64718Z" fill="#00C8D4"/>
<path d="M68.0997 14.7496L63.5471 5.67147C63.3628 5.30449 62.989 5.0728 62.5798 5.0728H60.5876L57.5034 7.59703V18.5948L60.5876 20.3661H71.132L68.0997 14.7496Z" fill="#B8DDFF"/>
<path d="M60.5875 14.7496V20.366H23.6221L28.0597 14.7496L34.9445 5.50912C35.1491 5.23515 35.4704 5.0728 35.812 5.0728H60.5875V14.7496Z" fill="#D5EAFF"/>
<path d="M65.5985 14.7496H45.1912L40.8532 19.0976V32.4656L45.1912 34.3823H65.5985L69.8776 29.8336V20.8327C69.8776 20.5299 69.7782 20.2354 69.5947 19.9946L65.5985 14.7496Z" fill="#16B7C0"/>
<path d="M81.7594 19.8312L82.5788 18.8397C82.2901 16.5341 80.3228 14.7496 77.9389 14.7496H65.5985V34.3823H82.6167V25.1807L81.7594 24.7449V19.8312Z" fill="#1DD7E2"/>
<path d="M25.5619 14.7496H10.656C5.29502 14.7496 0.94873 19.0959 0.94873 24.4569V31.3754V34.3823H22.4163L29.4228 32.6298V18.8389L25.5619 14.7496Z" fill="#1DD7E2"/>
<path d="M35.812 5.0728C35.4704 5.0728 35.1491 5.23515 34.9445 5.50912L28.0597 14.7496L23.6221 20.366H37.5487L41.9041 14.7489L49.1137 5.0728H35.812Z" fill="#B8DDFF"/>
<path d="M57.0774 34.3818V34.3823H65.5983L69.8775 29.8336V21.5818C62.8197 21.5818 57.0774 27.3238 57.0774 34.3818Z" fill="#00C8D4"/>
<path d="M82.6165 33.1415C81.9906 26.6633 76.517 21.5816 69.8775 21.5816C68.3771 21.5816 66.9373 21.8434 65.5984 22.3198V34.3823H82.6165V33.1415Z" fill="#00C8D4"/>
<path d="M29.4228 32.6298V29.6523C27.5375 24.9292 22.9198 21.5816 17.5319 21.5816C10.474 21.5816 4.73181 27.3237 4.73181 34.3816V34.3821H22.4163L29.4228 32.6298Z" fill="#00C8D4"/>
<path d="M45.1912 14.7496V34.3823H22.4163V26.9091V20.4641C22.4163 20.2155 22.4823 19.9736 22.6074 19.7605L25.5619 14.7496H45.1912Z" fill="#00C8D4"/>
<path d="M22.4163 22.5523V26.9091V34.3823H30.3323C30.3323 34.3822 30.3323 34.382 30.3323 34.3818C30.3323 29.0528 27.0581 24.4758 22.4163 22.5523Z" fill="#16B7C0"/>
<path d="M84 32.5474V35.5543C84 36.2003 83.4757 36.7246 82.828 36.7246H0.948742C0.424482 36.7246 0 36.3001 0 35.7758V32.3259C0 31.8016 0.424482 31.3754 0.948742 31.3754H82.828C83.4757 31.3754 84 31.8997 84 32.5474Z" fill="#D7D0D6"/>
<path d="M4.73181 34.3818C4.73181 35.1822 4.80927 35.9644 4.95048 36.7245H30.1136C30.2548 35.9644 30.3323 35.1822 30.3323 34.3818C30.3323 33.3463 30.2054 32.3402 29.9722 31.3754H5.09186C4.85865 32.3404 4.73181 33.3463 4.73181 34.3818Z" fill="#B8B2B8"/>
<path d="M17.532 42.9541C22.2664 42.9541 26.1044 39.1161 26.1044 34.3818C26.1044 29.6474 22.2664 25.8094 17.532 25.8094C12.7977 25.8094 8.95972 29.6474 8.95972 34.3818C8.95972 39.1161 12.7977 42.9541 17.532 42.9541Z" fill="#736572"/>
<path d="M17.5321 34.3818C17.5321 31.2093 19.2591 28.4401 21.8205 26.9578C20.5594 26.2279 19.094 25.8096 17.5321 25.8096C12.7977 25.8096 8.9599 29.6476 8.9599 34.382C8.9599 39.1164 12.7978 42.9543 17.5321 42.9543C19.094 42.9543 20.5603 42.5356 21.8214 41.8057C19.2599 40.323 17.5321 37.5542 17.5321 34.3818Z" fill="#615260"/>
<path d="M17.5321 37.8806C15.603 37.8806 14.0334 36.3111 14.0334 34.382C14.0334 32.4529 15.603 30.8833 17.5321 30.8833C19.4613 30.8833 21.0309 32.4529 21.0309 34.382C21.0309 36.3111 19.4613 37.8806 17.5321 37.8806Z" fill="#F9F7F8"/>
<path d="M57.0773 34.3818C57.0773 35.1822 57.1548 35.9644 57.296 36.7245H82.459C82.6002 35.9644 82.6776 35.1822 82.6776 34.3818C82.6776 33.3463 82.5508 32.3402 82.3176 31.3754H57.4372C57.2042 32.3404 57.0773 33.3463 57.0773 34.3818Z" fill="#B8B2B8"/>
<path d="M69.8776 42.9541C74.6119 42.9541 78.4499 39.1161 78.4499 34.3818C78.4499 29.6474 74.6119 25.8094 69.8776 25.8094C65.1432 25.8094 61.3052 29.6474 61.3052 34.3818C61.3052 39.1161 65.1432 42.9541 69.8776 42.9541Z" fill="#736572"/>
<path d="M17.5321 34.3818C17.5321 33.1637 17.7873 32.0055 18.2456 30.9567C18.0151 30.9087 17.7766 30.8831 17.5321 30.8831C15.603 30.8831 14.0334 32.4527 14.0334 34.3818C14.0334 36.3109 15.603 37.8805 17.5321 37.8805C17.7766 37.8805 18.0169 37.8549 18.2474 37.8069C17.7889 36.758 17.5321 35.5999 17.5321 34.3818Z" fill="#D7D0D6"/>
<path d="M69.8776 34.3818C69.8776 31.2093 71.6048 28.4402 74.1662 26.9577C72.9049 26.2278 71.4395 25.8094 69.8776 25.8094C65.1432 25.8094 61.3054 29.6474 61.3054 34.3818C61.3054 39.1162 65.1433 42.9541 69.8776 42.9541C71.4395 42.9541 72.9056 42.5354 74.1669 41.8055C71.6053 40.3232 69.8776 37.5542 69.8776 34.3818Z" fill="#615260"/>
<path d="M69.8774 37.8806C67.9483 37.8806 66.3787 36.3111 66.3787 34.382C66.3787 32.4529 67.9483 30.8833 69.8774 30.8833C71.8067 30.8833 73.3762 32.4529 73.3762 34.382C73.3762 36.3111 71.8068 37.8806 69.8774 37.8806Z" fill="#F9F7F8"/>
<path d="M69.8776 34.3818C69.8776 33.1638 70.1329 32.0059 70.5916 30.9569C70.3609 30.9088 70.1221 30.8831 69.8776 30.8831C67.9485 30.8831 66.3789 32.4527 66.3789 34.3818C66.3789 36.3109 67.9485 37.8805 69.8776 37.8805C70.1223 37.8805 70.3611 37.8548 70.5919 37.8067C70.1331 36.7577 69.8776 35.5998 69.8776 34.3818Z" fill="#D7D0D6"/>
<path d="M39.5848 21.6343H38.6738C37.9731 21.6343 37.4054 21.0664 37.4054 20.3659C37.4054 19.6655 37.9731 19.0976 38.6738 19.0976H39.5848C40.2854 19.0976 40.8532 19.6655 40.8532 20.3659C40.8532 21.0664 40.2854 21.6343 39.5848 21.6343Z" fill="#00C8D4"/>
<path d="M8.13953 15.0811V20.5875C8.13953 22.3243 6.73079 23.7331 4.99228 23.7331H0.975769C1.28187 19.5644 4.2228 16.1279 8.13953 15.0811Z" fill="#16B7C0"/>
<path d="M82.6166 19.4257V25.1807H79.5674C78.7641 25.1807 78.1113 24.5279 78.1113 23.7246V20.2949C78.1113 19.4916 78.7641 18.8388 79.5674 18.8388H82.5794C82.6047 19.0316 82.6166 19.2278 82.6166 19.4257Z" fill="#FFB547"/>
</svg>
