<svg width="63" height="56" viewBox="0 0 63 56" fill="none" xmlns="http://www.w3.org/2000/svg">
<path d="M52.1721 37.4053C47.2872 37.4053 43.313 41.3795 43.313 46.2645C43.313 51.1494 47.2872 55.1236 52.1721 55.1236C57.0571 55.1236 61.0312 51.1494 61.0312 46.2645C61.0312 41.3795 57.0572 37.4053 52.1721 37.4053Z" fill="#736572"/>
<path d="M52.1722 39.3741C48.3727 39.3741 45.2817 42.465 45.2817 46.2646C45.2817 50.0642 48.3726 53.1551 52.1722 53.1551C55.9717 53.1551 59.0627 50.0642 59.0627 46.2646C59.0627 42.465 55.9716 39.3741 52.1722 39.3741Z" fill="#615260"/>
<path d="M52.1721 41.3427C49.4583 41.3427 47.2504 43.5507 47.2504 46.2645C47.2504 48.9782 49.4583 51.1862 52.1721 51.1862C54.8859 51.1862 57.0939 48.9782 57.0939 46.2645C57.0939 43.5507 54.8859 41.3427 52.1721 41.3427Z" fill="#E4DAD8"/>
<path d="M11.8138 37.4053C6.92881 37.4053 2.95465 41.3795 2.95465 46.2645C2.95465 51.1494 6.92881 55.1236 11.8138 55.1236C16.6987 55.1236 20.6729 51.1494 20.6729 46.2645C20.6729 41.3795 16.6988 37.4053 11.8138 37.4053Z" fill="#736572"/>
<path d="M11.8138 39.3741C8.01439 39.3741 4.92334 42.465 4.92334 46.2646C4.92334 50.0642 8.01427 53.1551 11.8138 53.1551C15.6134 53.1551 18.7043 50.0642 18.7043 46.2646C18.7043 42.465 15.6133 39.3741 11.8138 39.3741Z" fill="#615260"/>
<path d="M11.8138 41.3427C9.10004 41.3427 6.89209 43.5507 6.89209 46.2645C6.89209 48.9783 9.10004 51.1862 11.8138 51.1862C14.5276 51.1862 16.7356 48.9783 16.7356 46.2645C16.7356 43.5507 14.5276 41.3427 11.8138 41.3427Z" fill="#E4DAD8"/>
<path d="M49.1464 14.8502C49.0207 14.7943 48.8843 14.7654 48.7466 14.7654H45.7936C45.4358 14.7654 45.1062 14.9595 44.9327 15.2725C44.7593 15.5855 44.7693 15.9678 44.9588 16.2713C49.5241 23.5785 47.5987 33.4525 45.1908 38.3898H32.485C31.9414 38.3898 31.5007 38.8306 31.5007 39.3742V43.3116C31.5007 43.8552 31.9414 44.296 32.485 44.296H42.3285C42.4757 44.296 42.6211 44.2629 42.7539 44.1992L55.078 38.2931C55.3674 38.1546 55.5709 37.8838 55.6237 37.5674C55.7495 36.813 58.5935 19.0489 49.1464 14.8502Z" fill="#E4DAD8"/>
<path d="M45.1907 38.3897H47.1479C49.5559 33.4523 51.4811 23.5783 46.9158 16.2712C46.7263 15.9677 46.7164 15.5853 46.8898 15.2723C47.0632 14.9594 47.3929 14.7652 47.7507 14.7652H45.7935C45.4357 14.7652 45.1061 14.9594 44.9326 15.2723C44.7592 15.5853 44.7692 15.9677 44.9587 16.2712C49.5239 23.5783 47.5987 33.4523 45.1907 38.3897Z" fill="#D7C8C5"/>
<path d="M37.2952 30.3731C36.7381 27.2633 34.9255 24.991 31.9082 23.6193C29.4345 22.495 17.5521 21.2395 9.3055 26.6453C-0.194559 32.8728 -0.0411204 42.2081 0.00920566 45.2758C0.0128971 45.4995 0.0197877 45.7237 0.0135123 45.9474C0.00822128 46.1362 -0.00740564 46.3113 0.0563325 46.4944C0.192422 46.886 0.571775 47.1556 0.986073 47.1556H31.5009C31.7605 47.1556 32.0097 47.0529 32.194 46.8702C32.6491 46.419 34.2179 43.9321 35.4699 40.983C36.6652 38.1676 37.9522 34.0411 37.2952 30.3731Z" fill="#4AC9AA"/>
<path d="M2.94301 46.4945C2.87939 46.3114 2.8949 46.1364 2.90019 45.9475C2.90646 45.7238 2.89957 45.4996 2.89588 45.2759C2.84568 42.2082 2.69224 32.8728 12.1923 26.6454C16.4412 23.8602 21.6555 22.8434 26.0507 22.6657C21.2237 22.4687 14.5341 23.2179 9.30538 26.6454C-0.194682 32.8729 -0.0412425 42.2082 0.00908358 45.2759C0.012775 45.4996 0.0196656 45.7238 0.0133902 45.9475C0.00809921 46.1364 -0.00752772 46.3114 0.0562105 46.4945C0.1923 46.8861 0.57153 47.1557 0.985951 47.1557H3.87275C3.45845 47.1555 3.0791 46.886 2.94301 46.4945Z" fill="#00B388"/>
<path d="M52.1721 35.4366C46.2016 35.4366 41.3442 40.294 41.3442 46.2645C41.3442 46.8081 41.785 47.2488 42.3286 47.2488H44.2974C44.6569 47.2488 44.9878 47.0528 45.1607 46.7376C46.8324 43.6874 48.9947 42.3271 52.1722 42.3271C55.775 42.3271 58.0002 44.7462 59.2326 46.7754C59.4111 47.0693 59.7301 47.2488 60.074 47.2488H62.0156C62.5592 47.2488 63 46.8081 63 46.2645C63 40.294 58.1427 35.4366 52.1721 35.4366Z" fill="#4AC9AA"/>
<path d="M43.313 46.2645C43.313 40.6258 47.6456 35.9808 53.1565 35.4818C52.8321 35.4524 52.504 35.4366 52.1721 35.4366C46.2016 35.4366 41.3442 40.294 41.3442 46.2645C41.3442 46.8081 41.785 47.2488 42.3286 47.2488H44.2974C43.7536 47.2488 43.313 46.8081 43.313 46.2645Z" fill="#00B388"/>
<path d="M34.4538 17.7184H20.6729C17.4162 17.7184 14.7668 20.3677 14.7668 23.6245V24.6088C14.7668 25.1525 15.2075 25.5932 15.7512 25.5932H34.4538C34.9974 25.5932 35.4381 25.1525 35.4381 24.6088V18.7027C35.4381 18.1591 34.9974 17.7184 34.4538 17.7184Z" fill="#736572"/>
<path d="M17.7198 24.6087V23.6243C17.7198 20.3676 20.3691 17.7182 23.6259 17.7182H20.6729C17.4162 17.7182 14.7668 20.3675 14.7668 23.6243V24.6087C14.7668 25.1523 15.2075 25.593 15.7512 25.593H18.7042C18.1605 25.593 17.7198 25.1523 17.7198 24.6087Z" fill="#615260"/>
<path d="M48.2348 12.7965C47.6911 12.7965 47.2504 12.3558 47.2504 11.8122V6.57246L42.9474 4.85129C42.4426 4.64937 42.1971 4.07646 42.399 3.57185C42.6009 3.06723 43.174 2.82151 43.6785 3.02343L48.6002 4.99218C48.974 5.14168 49.219 5.50356 49.219 5.90617V11.8123C49.219 12.3558 48.7784 12.7965 48.2348 12.7965Z" fill="#615260"/>
<path d="M40.3599 1.52588e-05C38.1888 1.52588e-05 36.4225 1.76635 36.4225 3.93738C36.4225 6.10842 38.1889 7.87475 40.3599 7.87475C42.5311 7.87475 44.2973 6.10842 44.2973 3.93738C44.2973 1.76635 42.5311 1.52588e-05 40.3599 1.52588e-05Z" fill="#4AC9AA"/>
<path d="M42.3286 6.89051C40.1575 6.89051 38.3913 5.12418 38.3913 2.95314C38.3913 1.81238 38.8794 0.783832 39.6572 0.0642548C37.8204 0.396727 36.4226 2.00655 36.4226 3.93752C36.4226 6.10868 38.189 7.87489 40.36 7.87489C41.3904 7.87489 42.3291 7.47659 43.0315 6.82641C42.8033 6.86775 42.5687 6.89051 42.3286 6.89051Z" fill="#00B388"/>
<path d="M46.266 12.7966H38.3912C37.8476 12.7966 37.4068 12.3559 37.4068 11.8123C37.4068 11.2686 37.8476 10.8279 38.3912 10.8279H46.266C46.8097 10.8279 47.2504 11.2686 47.2504 11.8123C47.2504 12.3559 46.8097 12.7966 46.266 12.7966Z" fill="#615260"/>
<path d="M50.2034 10.8279H44.2972V15.7496C44.2972 16.2933 44.738 16.734 45.2816 16.734H50.2034V10.8279Z" fill="#736572"/>
<path d="M55.9472 10.285C55.7178 9.94281 55.3158 9.78543 54.9321 9.86258L50.2034 10.8279V16.734L54.9321 17.6993C55.5536 17.8238 56.1095 17.3283 56.1095 16.7071V10.8515C56.1095 10.6512 56.0589 10.4514 55.9472 10.285Z" fill="#4AC9AA"/>
<path d="M13.7824 13.781H2.95459C2.41097 13.781 1.97021 14.2218 1.97021 14.7654V24.6087C1.97021 25.1524 2.41097 25.5931 2.95459 25.5931H13.7824C14.3261 25.5931 14.7668 25.1524 14.7668 24.6087V14.7652C14.7668 14.2216 14.3261 13.781 13.7824 13.781Z" fill="#FFB547"/>
<path d="M14.7668 14.7653C14.7668 14.2216 14.3261 13.7809 13.7824 13.7809H2.95459C2.41097 13.7809 1.97021 14.2216 1.97021 14.7653V16.734H14.7668V14.7653Z" fill="#FFA113"/>
<path d="M14.8827 9.84348H1.85437C1.37473 9.84348 0.985779 10.2108 0.985779 10.6638V13.945C0.985779 14.3981 1.37473 14.7654 1.85437 14.7654H14.8825C15.3622 14.7654 15.7511 14.3981 15.7511 13.945V10.6638C15.7511 10.2108 15.3623 9.84348 14.8827 9.84348Z" fill="#FFB547"/>
<path d="M30.5165 31.4992H21.6573C21.1137 31.4992 20.673 31.0585 20.673 30.5149C20.673 29.9713 21.1137 29.5305 21.6573 29.5305H30.5165C31.0601 29.5305 31.5008 29.9713 31.5008 30.5149C31.5008 31.0585 31.0601 31.4992 30.5165 31.4992Z" fill="#00B388"/>
<path d="M28.5476 37.4054H15.7512C15.2075 37.4054 14.7668 36.9646 14.7668 36.421C14.7668 35.8774 15.2075 35.4366 15.7512 35.4366H28.5478C29.0914 35.4366 29.5321 35.8774 29.5321 36.421C29.532 36.9646 29.0913 37.4054 28.5476 37.4054Z" fill="#00B388"/>
<path d="M25.5946 43.3115H9.84503C9.30141 43.3115 8.86066 42.8707 8.86066 42.3271C8.86066 41.7835 9.30141 41.3427 9.84503 41.3427H25.5946C26.1383 41.3427 26.579 41.7835 26.579 42.3271C26.579 42.8707 26.1383 43.3115 25.5946 43.3115Z" fill="#00B388"/>
<path d="M15.7511 25.5931H0.985899C0.442279 25.5931 0.00152588 25.1524 0.00152588 24.6087C0.00152588 24.0651 0.442279 23.6244 0.985899 23.6244H15.7511C16.2948 23.6244 16.7355 24.0651 16.7355 24.6087C16.7355 25.1524 16.2948 25.5931 15.7511 25.5931Z" fill="#615260"/>
</svg>
