<svg width="70" height="58" viewBox="0 0 70 58" fill="none" xmlns="http://www.w3.org/2000/svg">
<path d="M43.2511 5.84646C43.1912 5.26609 42.674 4.8439 42.092 4.90379C40.0403 5.11557 38.5152 5.68582 37.3711 6.47482C38.2795 4.21131 39.7864 2.54867 42.3812 2.09805C42.9559 1.99811 43.3409 1.45109 43.2413 0.876191C43.1415 0.301289 42.5946 -0.0835743 42.0197 0.015957C39.1828 0.508828 37.0761 2.15424 35.7585 4.9068C35.4577 5.53516 35.2077 6.20084 34.9981 6.88389C34.7886 6.20098 34.5387 5.53543 34.2381 4.90693C32.9212 2.15437 30.8159 0.508691 27.9804 0.015957C27.4045 -0.084668 26.8587 0.301152 26.7587 0.876055C26.6589 1.45096 27.0439 1.99811 27.6187 2.09791C30.2113 2.54853 31.7172 4.21076 32.6251 6.47387C31.4818 5.68527 29.9579 5.11543 27.9081 4.90365C27.3264 4.84363 26.8089 5.26568 26.7489 5.84619C26.6889 6.4267 27.1108 6.94582 27.691 7.00584C32.219 7.47342 33.4686 9.85342 33.9519 13.2831C34.0237 13.7969 34.4786 14.192 34.9973 14.1923C35.5164 14.1926 35.9721 13.7973 36.044 13.2831C36.5274 9.85342 37.7779 7.47342 42.3088 7.0057C42.8891 6.94596 43.3111 6.42684 43.2511 5.84646Z" fill="#4AC9AA"/>
<path fill-rule="evenodd" clip-rule="evenodd" d="M16.1537 18.5174H23.3521C23.5517 18.5174 23.7153 18.6813 23.7153 18.8812V21.2082C23.7153 22.6875 22.5096 23.8989 21.0324 23.8989L19.7547 24.4347L18.4771 23.8989C16.9998 23.8989 15.7902 22.6875 15.7902 21.2082V18.8812C15.7903 18.6813 15.954 18.5174 16.1537 18.5174Z" fill="#00C8D4"/>
<path fill-rule="evenodd" clip-rule="evenodd" d="M23.7152 21.2082V18.8812C23.7152 18.6813 23.5516 18.5174 23.352 18.5174H20.2897C20.4893 18.5174 20.653 18.6813 20.653 18.8812V21.2082C20.653 22.6875 20.4494 23.8989 18.9722 23.8989H21.0322C22.5095 23.8989 23.7152 22.6875 23.7152 21.2082Z" fill="#16B7C0"/>
<path fill-rule="evenodd" clip-rule="evenodd" d="M53.8423 18.5174H46.644C46.4444 18.5174 46.2807 18.6813 46.2807 18.8812V21.2082C46.2807 22.6875 47.4904 23.8989 48.9676 23.8989L50.2453 24.6706L51.5229 23.8989C53.0002 23.8989 54.2098 22.6875 54.2098 21.2082V18.8812C54.2097 18.6813 54.0461 18.5174 53.8423 18.5174Z" fill="#00C8D4"/>
<path fill-rule="evenodd" clip-rule="evenodd" d="M31.0895 35.8818H38.9068V54.1777H31.0895V35.8818Z" fill="#D5EAFF"/>
<path fill-rule="evenodd" clip-rule="evenodd" d="M4.72699 41.7592H16.1615V54.0018H4.72699V41.7592Z" fill="#D5EAFF"/>
<path fill-rule="evenodd" clip-rule="evenodd" d="M0.231628 38.4726V41.6952C0.231628 42.4589 0.850417 43.0786 1.60907 43.0786H4.72721H16.1617H19.2759C20.0385 43.0786 20.6573 42.4589 20.6573 41.6952V38.4726C20.6573 37.713 20.0385 37.0891 19.2759 37.0891H1.60893C0.850417 37.0891 0.231628 37.713 0.231628 38.4726Z" fill="#4AC9AA"/>
<path fill-rule="evenodd" clip-rule="evenodd" d="M27.6758 29.2166V34.5902C27.6758 36.1216 28.9294 37.3769 30.4626 37.3769H31.0894H38.9067H39.5376C41.0707 37.3769 42.3203 36.1214 42.3203 34.5902V29.2166L34.9981 27.5254L27.6758 29.2166Z" fill="#736572"/>
<path fill-rule="evenodd" clip-rule="evenodd" d="M53.8345 41.9671H65.2689V53.794H53.8345V41.9671Z" fill="#D5EAFF"/>
<path fill-rule="evenodd" clip-rule="evenodd" d="M31.0894 13.7914C31.9797 17.8416 32.5267 19.7569 32.4987 23.899L34.9979 25.1145L37.4973 23.899C37.4694 19.7569 38.0163 17.8417 38.9066 13.7914C38.9864 13.4397 38.6111 13.1357 38.2518 13.1357H34.9979H31.744C31.3849 13.1357 31.0135 13.4395 31.0894 13.7914Z" fill="#FFB547"/>
<path fill-rule="evenodd" clip-rule="evenodd" d="M37.4973 23.8989C37.4694 19.7568 38.0162 17.8416 38.9066 13.7913C38.9864 13.4395 38.6111 13.1356 38.2518 13.1356H35.7605C36.1198 13.1356 36.4911 13.4395 36.4113 13.7913C35.525 17.8415 34.9779 19.7568 35.006 23.8989H36.8465H37.4973Z" fill="#FFA113"/>
<path fill-rule="evenodd" clip-rule="evenodd" d="M54.2098 21.2082V18.8812C54.2098 18.6813 54.0461 18.5174 53.8424 18.5174H50.7802C50.9798 18.5174 51.1435 18.6813 51.1435 18.8812V21.2082C51.1435 22.6875 50.9399 23.8989 49.4626 23.8989H51.5227C53.0001 23.8989 54.2098 22.6875 54.2098 21.2082Z" fill="#16B7C0"/>
<path fill-rule="evenodd" clip-rule="evenodd" d="M14.2572 23.899C12.7999 23.899 11.6062 25.0944 11.6062 26.5538C11.6062 28.0171 12.7999 29.2125 14.2572 29.2125H55.739C57.2003 29.2125 58.3939 28.0171 58.3939 26.5538C58.3939 25.0944 57.2003 23.899 55.739 23.899H51.523H48.9679H36.8467H34.9981H33.1536H21.0324H18.4773H14.2572Z" fill="#D7D0D6"/>
<path fill-rule="evenodd" clip-rule="evenodd" d="M55.7389 29.2126C57.2001 29.2126 58.3938 28.0171 58.3938 26.5538C58.3938 25.0945 57.2001 23.899 55.7389 23.899H51.5229C52.9802 23.899 54.1739 25.0945 54.1739 26.5538C54.1739 28.0171 52.9802 29.2126 51.5229 29.2126H55.7389Z" fill="#B8B2B8"/>
<path fill-rule="evenodd" clip-rule="evenodd" d="M42.3202 34.5904V29.2168H27.6758V32.2755H38.1161C39.6333 32.2755 39.5414 32.8752 39.5414 34.2826V36.5896C39.5414 36.8615 39.5015 37.1294 39.4256 37.3772H39.5374C41.0706 37.3771 42.3202 36.1216 42.3202 34.5904Z" fill="#615260"/>
<path fill-rule="evenodd" clip-rule="evenodd" d="M50.7203 37.0891C49.9618 37.0891 49.3389 37.7128 49.3389 38.4726V41.6952C49.3389 42.4589 49.9618 43.0786 50.7203 43.0786H53.8345H65.2689H68.3871C69.1456 43.0786 69.7685 42.4589 69.7685 41.6952V38.4726C69.7685 37.713 69.1456 37.0891 68.3871 37.0891H50.7203Z" fill="#4AC9AA"/>
<path fill-rule="evenodd" clip-rule="evenodd" d="M53.8345 43.0785V45.5694H62.3344C62.582 45.5694 62.554 45.7013 62.554 45.9413V53.7938H65.2688V43.0785H53.8345Z" fill="#B8DDFF"/>
<path fill-rule="evenodd" clip-rule="evenodd" d="M69.7684 41.6952V38.4726C69.7684 37.713 69.1455 37.0891 68.387 37.0891H64.2068C64.9694 37.0891 65.5882 37.7128 65.5882 38.4726V41.6952C65.5882 42.0311 65.4684 42.3389 65.2688 42.5788C65.0173 42.8827 64.634 43.0786 64.2068 43.0786H65.2688H68.387C69.1456 43.0785 69.7684 42.4589 69.7684 41.6952Z" fill="#00B388"/>
<path fill-rule="evenodd" clip-rule="evenodd" d="M20.6572 41.6952V38.4726C20.6572 37.713 20.0384 37.0891 19.2757 37.0891H15.0997C15.8582 37.0891 16.4811 37.7128 16.4811 38.4726V41.6952C16.4811 42.0311 16.3613 42.3389 16.1617 42.5788C15.9062 42.8827 15.5269 43.0786 15.0997 43.0786H16.1617H19.2759C20.0382 43.0785 20.6572 42.4589 20.6572 41.6952Z" fill="#00B388"/>
<path fill-rule="evenodd" clip-rule="evenodd" d="M38.9067 52.6823V37.377H31.0894V39.9519H35.2896C36.3556 39.9519 36.2637 40.6036 36.2637 41.6071V52.6823H38.9067Z" fill="#B8DDFF"/>
<path fill-rule="evenodd" clip-rule="evenodd" d="M4.72699 43.0785V45.5694H12.4923C13.5423 45.5933 13.4585 46.1171 13.4505 46.469L13.4425 53.7938H16.1615V43.0785H4.72699Z" fill="#B8DDFF"/>
<path fill-rule="evenodd" clip-rule="evenodd" d="M53.8345 52.6823H38.9066H31.0893H16.1615H4.72705H2.56717C1.16184 52.6823 0.00792969 53.8338 0 55.2412V55.2571V55.2692C0.00792969 56.6807 1.16184 57.8321 2.56717 57.8321H67.4289C68.8423 57.8321 70 56.6726 70 55.2573C70 53.8418 68.8421 52.6825 67.4289 52.6825H65.269H53.8345V52.6823Z" fill="#D7D0D6"/>
<path fill-rule="evenodd" clip-rule="evenodd" d="M70 55.2573C70 53.8418 68.8421 52.6824 67.4288 52.6824H65.269H63.117C63.9913 52.6824 64.7658 53.1223 65.229 53.794C65.5205 54.2097 65.6881 54.7135 65.6881 55.2573C65.6881 56.6726 64.5303 57.8321 63.117 57.8321H67.4288C68.8421 57.8321 70 56.6726 70 55.2573Z" fill="#B8B2B8"/>
</svg>
